<svg width="56" height="56" viewBox="0 0 56 56" fill="none" xmlns="http://www.w3.org/2000/svg">
<path d="M49.2334 25.7833L30.2167 6.76668C29.6334 6.18334 28.8167 5.83334 28 5.83334C27.1834 5.83334 26.3667 6.18334 25.7834 6.76668L21.7 10.85L26.4834 15.6333C26.95 15.4 27.4167 15.2833 28 15.2833C29.9834 15.2833 31.5 16.8 31.5 18.7833C31.5 19.3667 31.3834 19.8333 31.15 20.3L35.8167 24.9667C36.2834 24.7333 36.75 24.6167 37.3334 24.6167C39.3167 24.6167 40.8334 26.1333 40.8334 28.1167C40.8334 30.1 39.3167 31.6167 37.3334 31.6167C35.35 31.6167 33.8334 30.1 33.8334 28.1167C33.8334 27.5333 33.95 27.0667 34.1834 26.6L29.5167 21.9333C29.4 21.9333 29.2834 22.05 29.1667 22.05V34.1833C30.5667 34.65 31.5 35.9333 31.5 37.45C31.5 39.4333 29.9834 40.95 28 40.95C26.0167 40.95 24.5 39.4333 24.5 37.45C24.5 35.9333 25.4334 34.65 26.8334 34.1833V21.9333C25.4334 21.4667 24.5 20.1833 24.5 18.6667C24.5 18.0833 24.6167 17.6167 24.85 17.15L20.0667 12.3667L6.76671 25.7833C6.18337 26.3667 5.83337 27.1833 5.83337 28C5.83337 28.8167 6.18337 29.6333 6.76671 30.2167L25.7834 49.2333C26.3667 49.8167 27.1834 50.1667 28 50.1667C28.8167 50.1667 29.6334 49.8167 30.2167 49.2333L49.2334 30.2167C49.8167 29.6333 50.1667 28.8167 50.1667 28C50.1667 27.1833 49.8167 26.3667 49.2334 25.7833Z" fill="black"/>
</svg>
