<svg width="56" height="56" viewBox="0 0 56 56" fill="none" xmlns="http://www.w3.org/2000/svg">
<g clip-path="url(#clip0_1523_679)">
<mask id="mask0_1523_679" style="mask-type:luminance" maskUnits="userSpaceOnUse" x="0" y="0" width="56" height="56">
<path d="M0 0H56V56H0V0Z" fill="white"/>
</mask>
<g mask="url(#mask0_1523_679)">
<path d="M11.8534 0H14.3781V2.49433H16.6881V0H19.2127V7.55067H16.6881V5.02367H14.3781V7.55067H11.8557L11.8534 0ZM22.5307 2.50367H20.3094V0H27.2791V2.50367H25.0554V7.55067H22.5307V2.50367ZM28.3851 0H31.0171L32.6364 2.653L34.2534 0H36.8854V7.55067H34.3724V3.808L32.6364 6.49367H32.5921L30.8537 3.81033V7.55067H28.3851V0ZM38.1407 0H40.6677V5.05633H44.2144V7.553H38.1407V0Z" fill="black"/>
<path fill-rule="evenodd" clip-rule="evenodd" d="M11.774 51.5013L7 11.0063H49L44.2237 51.4967L27.9767 56L11.774 51.5013ZM21.427 29.3347L20.9743 24.248H39.9793L40.4227 19.2827H15.5493L16.8887 34.3023H34.1017L33.5253 40.7423L27.986 42.2403H27.9813L22.4513 40.747L22.0967 36.7873H17.108L17.8033 44.5853L27.9767 47.4087L38.1663 44.5853L39.4077 30.6693L39.529 29.337L21.427 29.3347Z" fill="black"/>
</g>
</g>
<defs>
<clipPath id="clip0_1523_679">
<rect width="56" height="56" fill="white"/>
</clipPath>
</defs>
</svg>
