<svg width="56" height="56" viewBox="0 0 56 56" fill="none" xmlns="http://www.w3.org/2000/svg">
<path d="M3.5 3.5V52.5H52.5V3.5H3.5ZM30.1665 41.7147C30.1665 46.4835 27.3665 48.6605 23.2873 48.6605C19.6017 48.6605 17.4685 46.7583 16.3748 44.45L20.1268 42.1855C20.8495 43.4648 21.5057 44.548 23.0912 44.548C24.5997 44.548 25.5623 43.9565 25.5623 41.65V25.998H30.1665V41.7147ZM41.0585 48.6605C36.7815 48.6605 34.0147 46.627 32.669 43.9565L36.421 41.7918C37.4062 43.4 38.696 44.5918 40.9605 44.5918C42.8628 44.5918 44.0895 43.6398 44.0895 42.3167C44.0895 40.7417 42.8418 40.1835 40.7313 39.2542L39.5832 38.7625C36.2582 37.352 34.0602 35.5687 34.0602 31.8167C34.0602 28.3605 36.6958 25.7355 40.7977 25.7355C43.729 25.7355 45.829 26.7523 47.3393 29.421L43.7517 31.7188C42.9642 30.3083 42.1102 29.75 40.7872 29.75C39.4432 29.75 38.5893 30.604 38.5893 31.7188C38.5893 33.0977 39.4432 33.6543 41.4225 34.5188L42.5705 35.0105C46.487 36.6835 48.685 38.402 48.685 42.2502C48.685 46.3855 45.4247 48.6588 41.0602 48.6588L41.0585 48.6605Z" fill="black"/>
</svg>
