<svg width="56" height="56" viewBox="0 0 56 56" fill="none" xmlns="http://www.w3.org/2000/svg">
<g clip-path="url(#clip0_1523_696)">
<mask id="mask0_1523_696" style="mask-type:luminance" maskUnits="userSpaceOnUse" x="0" y="0" width="56" height="56">
<path d="M0 0H56V56H0V0Z" fill="white"/>
</mask>
<g mask="url(#mask0_1523_696)">
<path d="M27.7993 0C13.58 0 14.4667 6.19733 14.4667 6.19733L14.483 12.6187H28.049V14.546H9.1C9.1 14.546 0 13.5077 0 27.9277C0 42.3477 7.94033 41.8343 7.94033 41.8343H12.677V35.1447C12.677 35.1447 12.4227 27.1647 20.4937 27.1647H33.9477C33.9477 27.1647 41.5077 27.286 41.5077 19.8193V7.47133C41.5077 7.47133 42.6557 0 27.7993 0ZM20.3187 4.31667C21.6673 4.31667 22.7593 5.41333 22.7593 6.77133C22.7593 8.127 21.6673 9.22367 20.3187 9.22367C18.97 9.22367 17.878 8.127 17.878 6.77133C17.878 5.41333 18.9677 4.31667 20.3187 4.31667Z" fill="black"/>
<path d="M28.203 56C42.4177 56 41.531 49.8027 41.531 49.8027L41.5147 43.3813H27.9487V41.454H46.9024C46.9024 41.454 56.0024 42.4923 56.0024 28.0723C56.0024 13.6523 48.0597 14.1657 48.0597 14.1657H43.323V20.8553C43.323 20.8553 43.5774 28.8353 35.5064 28.8353H22.0547C22.0547 28.8353 14.4947 28.714 14.4947 36.1807V48.5287C14.4947 48.5287 13.3467 56 28.203 56ZM35.6837 51.6833C34.3327 51.6833 33.243 50.5867 33.243 49.2287C33.243 47.873 34.3327 46.7763 35.6837 46.7763C37.0324 46.7763 38.1244 47.873 38.1244 49.2287C38.1244 50.5867 37.0324 51.6833 35.6837 51.6833Z" fill="black"/>
</g>
</g>
<defs>
<clipPath id="clip0_1523_696">
<rect width="56" height="56" fill="white"/>
</clipPath>
</defs>
</svg>
