<svg width="56" height="56" viewBox="0 0 56 56" fill="none" xmlns="http://www.w3.org/2000/svg">
<path d="M50.6754 28C50.6754 24.6657 47.551 21.7443 42.5857 19.8333C42.6534 19.4133 42.7654 18.97 42.819 18.5617C43.3254 13.7597 42.182 10.2947 39.6014 8.80368C36.7197 7.13768 32.641 8.36968 28.5157 11.6947C24.3834 8.37434 20.3 7.14234 17.4254 8.80368C14.8424 10.2947 13.692 13.7597 14.2077 18.5617C14.2497 18.97 14.364 19.4133 14.4294 19.8333C9.46637 21.7443 6.34204 24.6657 6.34204 28C6.34204 31.3343 9.46637 34.2557 14.4294 36.1667C14.364 36.5867 14.2497 37.03 14.2077 37.4383C13.699 42.2403 14.8424 45.7053 17.4254 47.1963C18.3027 47.6933 19.299 47.9477 20.307 47.9337C23.3654 47.6526 26.2465 46.3735 28.5064 44.2937C30.7668 46.374 33.6488 47.6531 36.708 47.9337C37.7178 47.948 38.7131 47.6935 39.592 47.1963C42.1727 45.7053 43.3254 42.2403 42.8097 37.4383C42.7654 37.03 42.6534 36.5867 42.5764 36.1667C47.551 34.2557 50.6754 31.3343 50.6754 28ZM36.652 10.388C37.2713 10.374 37.8833 10.5245 38.4254 10.8243C40.1357 11.8137 40.887 14.5413 40.488 18.319C40.46 18.5663 40.3877 18.837 40.3527 19.089C38.388 18.5212 36.3892 18.1145 34.356 17.8687C33.1261 16.2254 31.7627 14.6865 30.2797 13.2673C32.051 11.6656 34.2794 10.6587 36.652 10.388ZM18.179 30.877C18.5804 31.6703 18.9607 32.4637 19.4134 33.25C19.866 34.0363 20.335 34.7807 20.8134 35.511C19.5473 35.2926 18.2953 34.9996 17.0637 34.6337C17.36 33.3603 17.7324 32.1058 18.179 30.877ZM17.0614 21.3663C18.2929 21.0004 19.545 20.7075 20.811 20.489C20.3319 21.217 19.8653 21.9707 19.411 22.75C18.956 23.5317 18.578 24.3297 18.1767 25.123C17.7318 23.8941 17.36 22.6419 17.0614 21.3663ZM19.3667 28C19.9866 26.6041 20.6782 25.2412 21.4387 23.9167C22.2103 22.5913 23.0472 21.308 23.9494 20.0667C25.3937 19.9243 26.9127 19.8333 28.5087 19.8333C30.1032 19.8349 31.6214 19.9127 33.0634 20.0667C33.9656 21.3109 34.8059 22.5989 35.581 23.926C36.3402 25.2498 37.03 26.6078 37.6507 28C36.4098 30.797 34.8827 33.4579 33.0937 35.9403C30.0443 36.2542 26.9708 36.2542 23.9214 35.9403C23.0295 34.6962 22.1994 33.409 21.434 32.0833C20.6751 30.7587 19.9851 29.3958 19.3667 28ZM37.604 33.25C38.0707 32.4637 38.4394 31.6703 38.8407 30.877C39.2856 32.1075 39.6574 33.3605 39.956 34.636C38.7232 34.997 37.4714 35.2899 36.2064 35.5133C36.6777 34.7807 37.149 34.0317 37.5994 33.25H37.604ZM38.8407 25.123C38.4394 24.3297 38.059 23.5363 37.604 22.75C37.159 21.9824 36.6921 21.2277 36.204 20.4867C37.4703 20.7076 38.7194 21 39.9514 21.364C39.6552 22.6382 39.2827 23.8935 38.836 25.123H38.8407ZM28.5064 14.7933C29.4397 15.6691 30.3186 16.597 31.143 17.577C30.2797 17.5288 29.4016 17.5031 28.5087 17.5C27.1694 17.4953 26.7354 17.5303 25.8697 17.577C26.6942 16.597 27.573 15.6691 28.5064 14.7933ZM18.592 10.8267C19.1341 10.5269 19.7461 10.3763 20.3654 10.3903C22.7361 10.6614 24.9627 11.6674 26.733 13.2673C25.2501 14.6865 23.8867 16.2254 22.6567 17.8687C20.6252 18.1145 18.627 18.522 16.6624 19.0913C16.6274 18.837 16.5527 18.5663 16.527 18.319C16.128 14.5413 16.8794 11.816 18.592 10.8267ZM8.67537 28C8.67537 25.9 10.948 23.73 14.847 22.1527C15.3557 24.1523 16.023 26.1077 16.8444 28C16.023 29.8923 15.3557 31.85 14.847 33.8473C10.948 32.27 8.67537 30.1 8.67537 28ZM18.592 45.1757C16.8794 44.1887 16.128 41.4587 16.527 37.681C16.5527 37.4337 16.6274 37.163 16.6624 36.9087C18.6255 37.4765 20.6197 37.884 22.645 38.1313C23.8847 39.7809 25.2557 41.3275 26.7447 42.756C23.429 45.3437 20.412 46.228 18.592 45.1757ZM25.8487 38.4207C26.7198 38.472 27.6065 38.4985 28.5087 38.5C29.4109 38.4985 30.2968 38.472 31.1664 38.4207C30.3368 39.4176 29.4485 40.3643 28.5064 41.2557C27.565 40.3643 26.6776 39.4176 25.8487 38.4207ZM38.4254 45.1757C36.6007 46.228 33.5837 45.3437 30.2587 42.7537C31.7506 41.3288 33.1219 39.7827 34.3584 38.1313C36.3827 37.8847 38.3841 37.4766 40.3434 36.911C40.3784 37.163 40.4507 37.4337 40.4787 37.681C40.887 41.4587 40.1334 44.1887 38.4254 45.1757ZM42.1587 33.8497C41.6529 31.85 40.9881 29.8939 40.1707 28C40.9936 26.1022 41.6594 24.1523 42.168 22.1503C46.067 23.73 48.342 25.9 48.342 28C48.342 30.1 46.067 32.27 42.168 33.8497H42.1587Z" fill="black"/>
<path d="M28.5017 32.137C29.3285 32.1398 30.1375 31.8973 30.8266 31.4404C31.5156 30.9835 32.0537 30.3325 32.3729 29.5698C32.6921 28.8071 32.778 27.9669 32.6197 27.1554C32.4615 26.3439 32.0662 25.5975 31.4838 25.0106C30.9015 24.4237 30.1582 24.0226 29.348 23.858C28.5378 23.6935 27.6969 23.7728 26.9317 24.086C26.1666 24.3992 25.5114 24.9322 25.0491 25.6176C24.5868 26.3031 24.3381 27.1102 24.3344 27.937V27.951C24.3322 28.4997 24.4384 29.0435 24.6469 29.5511C24.8553 30.0588 25.1619 30.5202 25.549 30.9091C25.9362 31.298 26.3963 31.6067 26.903 31.8174C27.4097 32.0281 27.953 32.1367 28.5017 32.137Z" fill="black"/>
</svg>
