<svg width="534" height="534" viewBox="0 0 534 534" fill="none" xmlns="http://www.w3.org/2000/svg">
<g clip-path="url(#clip0_410_1046)">
<path d="M271.091 70.456C303.579 50.3028 377.656 154.251 319.065 214.337C306.036 227.698 302.169 219.527 285.124 222.336C275.523 223.917 271.614 203.657 228.435 216.345C200.047 224.686 204.202 185.736 163.938 194.825C76.0311 214.657 194.398 64.9344 271.101 70.456H271.091Z" fill="black"/>
<path fill-rule="evenodd" clip-rule="evenodd" d="M278.214 70.1996C273.611 78.1776 261.479 79.9398 250.414 76.5008C238.559 72.8162 232.408 59.9255 237.267 48.5086C240.215 41.5772 245.661 35.6071 253.8 32.4245C261.938 29.2418 271.005 32.6488 275.106 40.285C280.307 49.9717 282.166 63.3751 278.225 70.2103L278.214 70.1996Z" fill="black"/>
<path d="M290.645 155.757C291.606 150.94 293.636 147.138 296.21 144.65C299.969 141.019 304.946 140.058 309.527 142.567C312.219 144.041 314.707 146.775 316.704 150.919C314.953 152.799 312.998 153.536 310.895 153.632C306.281 145.098 299.2 147.662 297.075 156.248C294.768 156.846 292.632 156.505 290.645 155.746V155.757Z" fill="#FFF8F5"/>
<path d="M291.841 151.56C292.93 148.698 294.436 146.369 296.209 144.65C299.968 141.019 304.945 140.058 309.527 142.567C311.129 143.443 312.656 144.767 314.045 146.562C311.93 147.63 309.655 148.569 307.252 149.349C304.465 147.534 301.496 148.377 299.37 151.165C296.775 151.528 294.233 151.656 291.83 151.549L291.841 151.56Z" fill="white" stroke="black" stroke-width="2.136" stroke-miterlimit="10"/>
<path fill-rule="evenodd" clip-rule="evenodd" d="M278.705 147C275.042 142.183 257.612 136.875 254.589 139.246C253.767 155.821 250.478 177.672 247.039 186.152C256.341 189.121 274.796 188.053 282.859 185.949C278.566 177.918 277.872 153.141 278.705 146.989V147Z" fill="white" stroke="#020202" stroke-width="2.136" stroke-miterlimit="10"/>
<path fill-rule="evenodd" clip-rule="evenodd" d="M296.487 115.739C301.08 114.468 305.907 117.459 307.274 122.403C308.641 127.359 306.035 132.4 301.443 133.66C296.85 134.931 292.023 131.941 290.656 126.996C289.289 122.051 291.895 116.999 296.487 115.739Z" fill="white" stroke="#020202" stroke-width="2.136" stroke-miterlimit="10"/>
<path fill-rule="evenodd" clip-rule="evenodd" d="M254.579 139.246C236.732 148.623 230.506 113.571 253.083 122.873C258.744 114.105 269.093 112.45 270.054 96.5685C273.931 96.3015 277.722 96.3656 281.417 96.8569C289.929 97.9783 297.096 103.692 300.257 111.681C308.609 132.784 299.029 154.401 285.433 158.972C275.928 162.176 265.43 154.059 254.568 139.256L254.579 139.246Z" fill="white" stroke="#020202" stroke-width="2.136" stroke-miterlimit="10"/>
<path d="M243.611 129.516C243.045 129.847 242.329 129.666 241.987 129.1C241.656 128.534 241.838 127.818 242.404 127.476C242.618 127.348 242.842 127.231 243.066 127.124C244.647 126.355 246.377 126.099 248.032 126.558C249.677 127.007 251.204 128.149 252.39 130.146C252.539 130.392 252.678 130.659 252.817 130.937C253.009 131.289 253.031 131.727 252.817 132.101C252.497 132.667 251.77 132.859 251.204 132.539C250.499 132.133 249.837 131.866 249.218 131.706C248.598 131.546 248.011 131.514 247.488 131.567C246.836 131.642 246.259 131.172 246.185 130.52C246.11 129.869 246.58 129.292 247.231 129.217C247.584 129.175 247.936 129.164 248.31 129.185C248.022 129.025 247.723 128.897 247.413 128.811C246.345 128.512 245.191 128.705 244.102 129.228C243.942 129.303 243.782 129.388 243.611 129.495V129.516Z" fill="black"/>
<path d="M253.586 139.876C253.233 139.321 253.404 138.594 253.96 138.253C254.515 137.9 255.241 138.071 255.583 138.626C257.42 141.542 259.641 144.543 262.322 147.405C265.003 150.257 268.132 152.97 271.806 155.298C272.351 155.65 272.521 156.377 272.169 156.921C271.817 157.466 271.09 157.637 270.546 157.284C266.69 154.828 263.411 151.998 260.613 149.018C257.815 146.038 255.508 142.92 253.596 139.887L253.586 139.876Z" fill="black"/>
<path d="M225.882 155.383C229.118 150.844 232.995 147.843 236.808 146.476C242.393 144.458 247.99 145.782 251.567 150.524C253.671 153.301 254.974 157.295 255.113 162.518C252.422 163.639 250.051 163.5 247.829 162.624C247.028 151.645 238.495 151.004 232.301 158.908C229.631 158.448 227.58 157.113 225.871 155.394L225.882 155.383Z" fill="#FFF8F5"/>
<path d="M229.076 151.592C231.532 149.136 234.191 147.416 236.819 146.476C242.404 144.458 248.001 145.782 251.578 150.524C252.828 152.179 253.789 154.251 254.398 156.761C251.717 156.889 248.919 156.804 246.068 156.483C244.028 153.301 240.557 152.788 237.064 154.7C234.202 153.867 231.521 152.82 229.076 151.592Z" fill="white" stroke="black" stroke-width="2.136" stroke-miterlimit="10"/>
<path fill-rule="evenodd" clip-rule="evenodd" d="M272.351 430.821L248.235 430.287L246.548 497.848C267.822 506.221 394.263 509.158 405.797 485.919C315.573 464.121 324.96 391.294 272.351 430.821Z" fill="white" stroke="black" stroke-width="2.136" stroke-miterlimit="10"/>
<path fill-rule="evenodd" clip-rule="evenodd" d="M371.749 500.102C389.243 497.261 402.433 492.711 405.797 485.919C391.603 482.49 379.866 477.791 369.977 472.473C368.909 476.061 368.332 479.906 368.332 483.9C368.332 489.721 369.56 495.221 371.749 500.102Z" fill="white" stroke="#231F20" stroke-width="2.136" stroke-miterlimit="10"/>
<path fill-rule="evenodd" clip-rule="evenodd" d="M292.152 496.716L290.464 429.154C297.567 425.16 384.918 395.267 387.268 389.67C380.571 375.904 378.777 357.716 334.039 346.192C557.528 266.284 546.891 482.501 292.152 496.705V496.716Z" fill="black"/>
<path fill-rule="evenodd" clip-rule="evenodd" d="M290.667 437.314L290.464 429.165C297.567 425.171 384.918 395.278 387.268 389.681C380.572 375.915 378.777 357.727 334.039 346.203C413.519 317.783 463.363 326.84 483.174 350.913C456.645 396.132 382.109 430.361 290.667 437.303V437.314Z" fill="#1C1B1B"/>
<path fill-rule="evenodd" clip-rule="evenodd" d="M251.429 493.17C265.548 476.264 349.973 433.234 344.74 407.015C336.986 368.108 230.208 347.954 200.261 357.342C32.521 297.385 -22.7801 441.65 132.892 484.776C164.301 493.48 201.778 494.879 251.418 493.17H251.429Z" fill="black"/>
<path fill-rule="evenodd" clip-rule="evenodd" d="M331.348 432.262C340.554 423.152 346.225 414.416 344.751 407.015C336.997 368.108 230.219 347.954 200.272 357.342C122.532 329.553 68.9614 345.648 49.3315 375.188C89.9903 413.028 167.431 438.606 256.299 438.606C282.529 438.606 307.755 436.374 331.348 432.262Z" fill="#1C1B1B"/>
<path fill-rule="evenodd" clip-rule="evenodd" d="M266.349 429.688L290.465 429.154L292.152 496.716C270.877 505.089 144.437 508.026 132.903 484.787C223.127 462.989 213.74 390.162 266.349 429.688Z" fill="white" stroke="black" stroke-width="2.136" stroke-miterlimit="10"/>
<path fill-rule="evenodd" clip-rule="evenodd" d="M166.95 498.97C149.457 496.129 136.267 491.579 132.903 484.787C147.096 481.358 158.834 476.659 168.723 471.34C169.791 474.929 170.368 478.774 170.368 482.768C170.368 488.589 169.14 494.089 166.95 498.97Z" fill="white" stroke="#231F20" stroke-width="2.136" stroke-miterlimit="10"/>
<path fill-rule="evenodd" clip-rule="evenodd" d="M208.143 440.048C226.951 420.546 237.011 407.645 266.349 429.688C259.546 439.706 246.591 446.477 231.725 446.477C222.892 446.477 214.743 444.085 208.143 440.048Z" fill="white" stroke="#231F20" stroke-width="2.136" stroke-miterlimit="10"/>
<path d="M293.049 428.118C292.44 428.364 291.757 428.076 291.511 427.467C291.265 426.858 291.554 426.175 292.163 425.929L400.725 381.65C401.334 381.404 402.017 381.693 402.263 382.301C402.508 382.91 402.22 383.594 401.611 383.839L293.049 428.118Z" fill="white"/>
<path d="M132.806 389.169C132.197 388.934 131.898 388.25 132.133 387.641C132.368 387.032 133.052 386.733 133.661 386.968L223.255 421.721C223.864 421.956 224.163 422.64 223.928 423.248C223.693 423.857 223.009 424.156 222.401 423.921L132.806 389.169Z" fill="white"/>
<path fill-rule="evenodd" clip-rule="evenodd" d="M304.38 206.103C310.137 197.954 306.986 185.245 304.754 180.236C277.734 178.943 252.283 177.747 230.72 174.789C226.395 180.513 223.789 198.627 228.68 208.484C178.175 216.815 21.9904 354.33 172.952 388.677C440.016 470.881 508.763 292.664 304.37 206.092L304.38 206.103Z" fill="white" stroke="black" stroke-width="2.136" stroke-miterlimit="10"/>
<path d="M234.052 210.172C233.465 209.894 233.208 209.189 233.486 208.602C233.764 208.014 234.468 207.758 235.056 208.036C239.093 209.926 247.904 211.56 256.961 212.511C266.177 213.472 275.587 213.717 280.425 212.778C281.065 212.66 281.685 213.077 281.802 213.717C281.92 214.358 281.503 214.978 280.862 215.095C275.8 216.078 266.124 215.843 256.704 214.86C247.423 213.888 238.324 212.18 234.041 210.172H234.052Z" fill="black"/>
<path d="M199.492 252.23C199.588 251.589 200.196 251.14 200.837 251.236C201.478 251.332 201.927 251.941 201.83 252.582L188.459 347.089C188.363 347.73 187.754 348.179 187.113 348.083C186.601 348.008 186.216 347.602 186.131 347.121C185.864 346.149 184.614 343.33 184.24 342.379C180.652 333.248 172.717 326.466 163.404 322.579C154.037 318.681 143.315 317.709 134.183 320.218C133.03 320.539 131.887 320.913 130.755 321.361C130.146 321.596 129.463 321.297 129.228 320.688C128.993 320.08 129.292 319.396 129.901 319.161C131.075 318.702 132.304 318.296 133.575 317.944C143.208 315.295 154.497 316.31 164.322 320.4C173.763 324.33 181.88 331.123 185.928 340.265L199.513 252.23H199.492Z" fill="black"/>
<path d="M326.028 260.069C325.9 259.428 326.306 258.808 326.947 258.67C327.587 258.541 328.207 258.947 328.346 259.588L343.372 332.009C343.501 332.65 343.095 333.269 342.454 333.408C341.813 333.547 341.194 333.131 341.055 332.49L326.028 260.069Z" fill="black"/>
<path fill-rule="evenodd" clip-rule="evenodd" d="M172.963 388.688L187.658 348.104L227.473 357.406L275.106 386.595C272.479 391.144 270.631 394.989 263.924 395.331C267.385 398.652 273.515 400.019 275.843 402.273C272.618 410.005 259.086 407.805 257.174 406.833C245.031 419.777 223.575 404.526 215.405 401.718C210.46 402.209 182.179 399.304 172.973 388.699L172.963 388.688Z" fill="white" stroke="black" stroke-width="2.136" stroke-miterlimit="10"/>
<path d="M223.341 386.605C222.796 386.253 222.625 385.527 222.977 384.982C223.33 384.437 224.056 384.266 224.601 384.619L257.794 405.84C258.339 406.192 258.51 406.919 258.157 407.463C257.805 408.008 257.079 408.179 256.534 407.826L223.341 386.605Z" fill="black"/>
<path d="M228.338 373.811C227.815 373.416 227.708 372.679 228.093 372.155C228.488 371.632 229.225 371.525 229.748 371.91C233.614 374.804 243.066 380.934 252.496 386.862C263.369 393.697 274.177 400.233 276.313 401.194C276.911 401.461 277.178 402.155 276.911 402.753C276.644 403.352 275.95 403.619 275.352 403.352C273.109 402.348 262.183 395.737 251.236 388.869C241.742 382.899 232.226 376.726 228.338 373.821V373.811Z" fill="black"/>
<path d="M234.554 363.131C233.999 362.789 233.817 362.063 234.159 361.507C234.501 360.952 235.227 360.77 235.782 361.112L275.726 385.58C276.281 385.922 276.463 386.648 276.121 387.203C275.779 387.759 275.053 387.94 274.497 387.599L234.554 363.131Z" fill="black"/>
<path fill-rule="evenodd" clip-rule="evenodd" d="M341.333 207.972C345.851 210.492 347.859 215.49 345.819 219.132C343.789 222.774 338.471 223.682 333.964 221.161C329.446 218.641 327.438 213.643 329.478 210.001C331.518 206.359 336.826 205.451 341.333 207.972Z" fill="white" stroke="black" stroke-width="2.136" stroke-miterlimit="10"/>
<path fill-rule="evenodd" clip-rule="evenodd" d="M365.267 216.12C358.186 212.682 338.962 211.08 328.293 212.927C322.365 213.952 325.334 225.54 328.741 226.533C326.199 230.4 326.093 237.032 329.542 241.998C327.609 245.629 328.517 253.02 331.988 256.213C335.608 268.773 341.856 269.264 348.841 269.777L348.478 384.875C416.36 383.327 401.44 304.647 379.3 250.446L365.277 216.11L365.267 216.12Z" fill="white" stroke="black" stroke-width="2.136" stroke-miterlimit="10"/>
<path d="M328.848 227.708C328.197 227.762 327.631 227.281 327.577 226.63C327.524 225.978 328.005 225.412 328.656 225.359C332.319 225.049 336.944 225.231 341.419 225.636C347.186 226.17 352.729 227.078 355.708 227.836C356.339 227.997 356.723 228.637 356.573 229.268C356.424 229.898 355.772 230.282 355.142 230.122C352.227 229.385 346.833 228.488 341.205 227.975C336.869 227.58 332.394 227.409 328.848 227.708Z" fill="black"/>
<path d="M329.639 243.141C328.987 243.194 328.421 242.714 328.368 242.062C328.314 241.411 328.795 240.845 329.447 240.791C333.046 240.482 337.318 240.663 341.451 241.08C346.962 241.624 352.206 242.596 355.239 243.365C355.869 243.525 356.253 244.166 356.104 244.796C355.944 245.426 355.303 245.811 354.673 245.661C351.714 244.914 346.588 243.974 341.227 243.44C337.243 243.045 333.11 242.863 329.649 243.162L329.639 243.141Z" fill="black"/>
<path d="M331.978 257.388C331.326 257.388 330.803 256.854 330.803 256.203C330.803 255.551 331.337 255.028 331.988 255.028C335.961 255.049 340.18 255.348 344.078 255.786C348.393 256.277 352.344 256.961 355.132 257.666C355.762 257.826 356.146 258.467 355.997 259.097C355.837 259.727 355.196 260.111 354.566 259.962C351.864 259.278 348.03 258.616 343.832 258.146C339.977 257.708 335.833 257.42 331.988 257.399L331.978 257.388Z" fill="black"/>
<path fill-rule="evenodd" clip-rule="evenodd" d="M316.107 284.569H485.662L426.132 410.956H256.587L316.107 284.569Z" fill="white"/>
<path d="M316.31 283.383H487.724L427.083 412.141H254.921C275.128 369.218 295.345 326.295 315.562 283.383H316.31ZM483.996 285.754H317.057L258.648 409.781H425.588L483.996 285.754Z" fill="black"/>
<path d="M208.292 412.141C207.64 412.141 207.106 411.607 207.106 410.956C207.106 410.304 207.64 409.77 208.292 409.77H426.142C426.794 409.77 427.328 410.304 427.328 410.956C427.328 411.607 426.794 412.141 426.142 412.141H208.292Z" fill="#1A1A1A"/>
<path d="M371.322 357.823C376.878 357.823 381.382 353.318 381.382 347.762C381.382 342.206 376.878 337.702 371.322 337.702C365.765 337.702 361.261 342.206 361.261 347.762C361.261 353.318 365.765 357.823 371.322 357.823Z" fill="black"/>
</g>
<defs>
<clipPath id="clip0_410_1046">
<rect width="534" height="534" fill="white"/>
</clipPath>
</defs>
</svg>
