<svg width="32" height="32" viewBox="0 0 32 32" fill="none" xmlns="http://www.w3.org/2000/svg">
<path d="M23.7586 0H7.5825C3.3948 0 0 3.40107 0 7.59651V23.8025C0 27.9979 3.3948 31.399 7.5825 31.399H23.7586C27.9463 31.399 31.3411 27.9979 31.3411 23.8025V7.59651C31.3411 3.40107 27.9463 0 23.7586 0Z" fill="white"/>
<path fill-rule="evenodd" clip-rule="evenodd" d="M15.7101 25.7194C15.1751 25.7281 14.4076 25.2933 14.4076 25.2933C12.7996 24.4879 9.65721 21.3555 9.27063 17.3854C8.89557 13.534 10.8907 9.77634 15.6605 9.75994H15.6678C15.6707 9.75994 15.6736 9.75994 15.6765 9.75994L15.6918 9.75989C20.4616 9.77628 22.4566 13.534 22.0816 17.3854C21.695 21.3555 18.5526 24.4879 16.9447 25.2933C16.9447 25.2933 16.22 25.7111 15.7101 25.7194Z" fill="#042582"/>
<path fill-rule="evenodd" clip-rule="evenodd" d="M20.0274 7.46286C20.659 7.08303 21.4651 6.61175 22.1652 6.23218C22.5207 6.03954 22.8469 5.87144 23.1084 5.75111C23.2392 5.69086 23.3517 5.64363 23.4421 5.61131C23.538 5.57709 23.5927 5.56588 23.6145 5.56519C23.8426 5.55778 23.9634 5.41132 24.0124 5.28283C24.0638 5.14815 24.0601 4.9841 23.9933 4.85624C23.9596 4.79182 23.9062 4.72933 23.8249 4.68757C23.7395 4.64373 23.6347 4.62863 23.5206 4.64784C23.4113 4.66625 23.2982 4.71511 23.1813 4.79148C23.0635 4.86841 22.9353 4.97752 22.796 5.12437C21.9408 6.02531 20.6105 6.7105 20.0556 6.93858L20.0349 6.94715L20.0198 6.96053C19.9903 6.98692 19.9479 7.02025 19.8972 7.05389C19.8255 7.03024 19.7447 7.02617 19.6734 7.03077C19.5606 7.03796 19.4408 7.06785 19.3356 7.10895C19.2307 7.14994 19.1301 7.20611 19.0619 7.27202C18.9944 7.33724 18.9453 7.42663 18.9927 7.52067L18.9928 7.52094C18.993 7.52131 18.9932 7.522 18.9936 7.52311C18.9941 7.5248 18.9948 7.52723 18.9954 7.53046C18.9967 7.53707 18.9977 7.54585 18.9981 7.55722C18.9987 7.58013 18.9966 7.60985 18.9912 7.64667C18.9805 7.72019 18.9577 7.81545 18.9247 7.92827C18.8587 8.15365 18.754 8.44171 18.6311 8.75231C18.3856 9.37302 18.0699 10.0776 17.8542 10.5368L17.7741 10.7072L18.6415 10.5121L18.52 10.4067C18.4876 10.3785 18.4747 10.3213 18.4995 10.2339C18.5229 10.152 18.5725 10.0693 18.6106 10.0194L18.6219 10.0048L18.6252 9.98817C18.7027 9.60125 19.0422 8.6187 19.7722 7.81254C19.8963 7.67544 19.9794 7.55982 20.0274 7.46286ZM11.3493 7.47254C10.7177 7.09266 9.91154 6.62143 9.21141 6.24186C8.85603 6.04917 8.52975 5.88112 8.2683 5.76079C8.13742 5.70054 8.02497 5.65326 7.93453 5.62099C7.83865 5.58677 7.78395 5.5755 7.7622 5.57482C7.53401 5.56746 7.41327 5.421 7.36427 5.29247C7.31285 5.15781 7.31665 4.99376 7.38338 4.8659C7.41702 4.80148 7.47055 4.73899 7.5518 4.69723C7.63718 4.65338 7.74192 4.63829 7.85602 4.65749C7.96536 4.67591 8.07845 4.72477 8.19539 4.80114C8.31313 4.87807 8.44132 4.98718 8.5807 5.13403C9.43584 6.03499 10.7662 6.72018 11.321 6.94826L11.3418 6.95677L11.3568 6.97021C11.3864 6.9966 11.4288 7.02987 11.4795 7.06357C11.5512 7.03992 11.6319 7.03585 11.7033 7.0404C11.8161 7.04764 11.9359 7.07753 12.041 7.11863C12.1459 7.15962 12.2465 7.21574 12.3148 7.2817C12.3823 7.34692 12.4315 7.43626 12.384 7.5303L12.3838 7.53062C12.3838 7.53078 12.3837 7.53104 12.3836 7.53136C12.3834 7.53168 12.3833 7.53215 12.3831 7.53273C12.3825 7.53448 12.3819 7.53691 12.3812 7.54014C12.3799 7.5467 12.379 7.55553 12.3787 7.5669C12.378 7.58975 12.3801 7.61953 12.3855 7.65629C12.3962 7.72987 12.4189 7.82508 12.452 7.93795C12.518 8.16328 12.6227 8.45139 12.7455 8.76193C12.9911 9.3827 13.3067 10.0872 13.5225 10.5465L13.6025 10.7169L12.7352 10.5218L12.8566 10.4163C12.8891 10.3882 12.902 10.3309 12.8771 10.2435C12.8538 10.1616 12.8041 10.0789 12.766 10.0291L12.7548 10.0144L12.7515 9.9978C12.674 9.61093 12.3344 8.62832 11.6045 7.82222C11.4803 7.68507 11.3973 7.56944 11.3493 7.47254Z" fill="#042582"/>
<path fill-rule="evenodd" clip-rule="evenodd" d="M12.5494 22.6971C12.8663 22.9835 13.1948 23.2804 13.4983 23.5713C13.6384 23.7054 13.8136 23.878 13.9445 24.0353C13.9494 24.0412 13.9555 24.0472 13.9616 24.0534C13.9808 24.0725 14.0015 24.093 13.9938 24.1155C13.9918 24.1216 13.9849 24.1238 13.9782 24.1259C13.9755 24.1268 13.9728 24.1276 13.9705 24.1287C13.9452 24.1406 13.9274 24.1479 13.9126 24.1539C13.8712 24.171 13.8549 24.1777 13.7688 24.2457C13.4056 24.5324 13.1583 24.9223 12.9606 25.3376C12.9495 25.3609 12.9398 25.3848 12.9301 25.4088C12.9166 25.442 12.9031 25.4751 12.8861 25.5065C12.8857 25.5071 12.8854 25.5077 12.8851 25.5083C12.8769 25.5235 12.8654 25.5446 12.8491 25.5427C12.8166 25.539 12.7933 25.4503 12.7784 25.3935C12.7737 25.3754 12.7698 25.3606 12.7667 25.3527C12.7373 25.2776 12.7323 25.3258 12.7272 25.3748C12.7266 25.3811 12.7259 25.3874 12.7252 25.3935C12.6862 25.7266 12.6717 26.0652 12.733 26.3966C12.7648 26.5684 12.8357 26.7461 12.9197 26.9001C12.9334 26.925 12.9303 26.9298 12.8925 26.9107C12.6271 26.7762 12.4399 26.4692 12.3068 26.2145C12.1071 25.832 12.0331 25.4306 12.0072 25.0023C11.974 24.4544 11.9704 23.8843 12.0481 23.3398C12.0857 23.0756 12.1814 22.8514 12.2906 22.6141C12.2959 22.6028 12.3009 22.5899 12.306 22.5766C12.3157 22.5518 12.3258 22.5259 12.3386 22.5063C12.408 22.5693 12.4785 22.6329 12.5494 22.6971ZM18.8442 22.6971C18.5273 22.9835 18.1989 23.2804 17.8953 23.5713C17.7553 23.7054 17.58 23.878 17.4491 24.0353C17.4442 24.0412 17.4382 24.0472 17.432 24.0534C17.4128 24.0725 17.3921 24.0931 17.3998 24.1155C17.4018 24.1216 17.4087 24.1238 17.4154 24.1259C17.4181 24.1268 17.4208 24.1276 17.4231 24.1287C17.4484 24.1406 17.4663 24.1479 17.481 24.1539C17.5224 24.171 17.5387 24.1777 17.6249 24.2457C17.988 24.5324 18.2353 24.9223 18.433 25.3376C18.4441 25.3609 18.4538 25.3848 18.4635 25.4088C18.477 25.442 18.4905 25.4751 18.5076 25.5065L18.5086 25.5083C18.5167 25.5235 18.5282 25.5446 18.5446 25.5427C18.577 25.539 18.6003 25.4503 18.6152 25.3935C18.62 25.3754 18.6239 25.3606 18.6269 25.3527C18.6563 25.2776 18.6613 25.3258 18.6664 25.3748C18.6671 25.3811 18.6677 25.3874 18.6684 25.3935C18.7074 25.7266 18.722 26.0652 18.6607 26.3966C18.6288 26.5684 18.5579 26.7461 18.4739 26.9001C18.4602 26.925 18.4633 26.9298 18.5011 26.9107C18.7665 26.7762 18.9537 26.4692 19.0868 26.2145C19.2865 25.8321 19.3605 25.4306 19.3864 25.0024C19.4196 24.4544 19.4232 23.8843 19.3455 23.3398C19.3079 23.0756 19.2122 22.8514 19.103 22.6141C19.0978 22.6028 19.0927 22.5899 19.0876 22.5766C19.078 22.5518 19.0678 22.5259 19.055 22.5063C18.9856 22.5693 18.9151 22.6329 18.8442 22.6971Z" fill="#042582"/>
<path d="M14.3049 16.5039C14.3049 18.7075 12.8853 20.4939 11.1343 20.4939C9.38316 20.4939 7.96362 18.7075 7.96362 16.5039C7.96362 14.3003 9.38316 12.5139 11.1343 12.5139C12.8853 12.5139 14.3049 14.3003 14.3049 16.5039Z" fill="white"/>
<path fill-rule="evenodd" clip-rule="evenodd" d="M11.1343 19.9874C12.5047 19.9874 13.7994 18.5416 13.7994 16.5039C13.7994 14.4662 12.5047 13.0204 11.1343 13.0204C9.76377 13.0204 8.46915 14.4662 8.46915 16.5039C8.46915 18.5416 9.76377 19.9874 11.1343 19.9874ZM11.1343 20.4939C12.8853 20.4939 14.3049 18.7075 14.3049 16.5039C14.3049 14.3003 12.8853 12.5139 11.1343 12.5139C9.38316 12.5139 7.96362 14.3003 7.96362 16.5039C7.96362 18.7075 9.38316 20.4939 11.1343 20.4939Z" fill="#042582"/>
<path d="M23.473 16.5039C23.473 18.7075 22.0535 20.4938 20.3025 20.4938C18.5514 20.4938 17.1318 18.7075 17.1318 16.5039C17.1318 14.3003 18.5514 12.5139 20.3025 12.5139C22.0535 12.5139 23.473 14.3003 23.473 16.5039Z" fill="white"/>
<path fill-rule="evenodd" clip-rule="evenodd" d="M20.3025 19.9874C21.6729 19.9874 22.9676 18.5416 22.9676 16.5039C22.9676 14.4662 21.6729 13.0204 20.3025 13.0204C18.932 13.0204 17.6374 14.4662 17.6374 16.5039C17.6374 18.5416 18.932 19.9874 20.3025 19.9874ZM20.3025 20.4938C22.0535 20.4938 23.473 18.7075 23.473 16.5039C23.473 14.3003 22.0535 12.5139 20.3025 12.5139C18.5514 12.5139 17.1318 14.3003 17.1318 16.5039C17.1318 18.7075 18.5514 20.4938 20.3025 20.4938Z" fill="#042582"/>
</svg>
