<svg width="136" height="40" viewBox="0 0 136 40" fill="none" xmlns="http://www.w3.org/2000/svg">
<path d="M31.5294 14.2118C31.5294 18.8819 28.7623 22.9082 24.7793 24.7351C26.4612 23.3496 27.5322 21.248 27.5322 18.896C27.5322 14.7642 24.2259 11.4042 20.112 11.3205C20.0574 11.3167 20.0075 11.3167 19.9529 11.3167C19.8983 11.3167 19.8485 11.3167 19.7939 11.3205C18.2673 11.4033 17.0588 12.6663 17.0588 14.2108V28.6814C17.0588 33.4748 13.1699 37.3638 8.37646 37.3638V14.2118C8.37646 7.81928 13.5605 2.63528 19.9529 2.63528C26.3454 2.63528 31.5294 7.81928 31.5294 14.2118Z" fill="black"/>
<path d="M21.9992 16.2582C23.1294 15.128 23.1294 13.2956 21.9992 12.1654C20.8689 11.0351 19.0365 11.0351 17.9063 12.1654C16.7761 13.2956 16.7761 15.128 17.9063 16.2582C19.0365 17.3884 20.8689 17.3884 21.9992 16.2582Z" fill="black"/>
<path d="M58.6258 27.38C57.3058 27.38 56.1924 27.1733 55.2858 26.76C54.3791 26.3333 53.6924 25.76 53.2258 25.04C52.7591 24.3067 52.5258 23.4667 52.5258 22.52H55.7058C55.7058 22.8933 55.8058 23.24 56.0058 23.56C56.2191 23.88 56.5391 24.14 56.9658 24.34C57.3924 24.5267 57.9458 24.62 58.6258 24.62C59.2391 24.62 59.7524 24.54 60.1658 24.38C60.5791 24.22 60.8924 24 61.1058 23.72C61.3191 23.4267 61.4258 23.0933 61.4258 22.72C61.4258 22.2533 61.2258 21.8867 60.8258 21.62C60.4258 21.34 59.7791 21.16 58.8858 21.08L57.7858 20.98C56.3324 20.86 55.1724 20.4067 54.3058 19.62C53.4391 18.8333 53.0058 17.7933 53.0058 16.5C53.0058 15.5667 53.2258 14.76 53.6658 14.08C54.1191 13.4 54.7458 12.88 55.5458 12.52C56.3458 12.1467 57.2924 11.96 58.3858 11.96C59.5324 11.96 60.5124 12.16 61.3258 12.56C62.1524 12.9467 62.7858 13.5 63.2258 14.22C63.6658 14.9267 63.8858 15.76 63.8858 16.72H60.6858C60.6858 16.36 60.5991 16.0333 60.4258 15.74C60.2524 15.4333 59.9924 15.1867 59.6458 15C59.3124 14.8133 58.8924 14.72 58.3858 14.72C57.9058 14.72 57.4991 14.8 57.1658 14.96C56.8458 15.12 56.6058 15.34 56.4458 15.62C56.2858 15.8867 56.2058 16.18 56.2058 16.5C56.2058 16.9133 56.3524 17.2733 56.6458 17.58C56.9391 17.8867 57.4191 18.0667 58.0858 18.12L59.2058 18.22C60.2724 18.3133 61.2124 18.5467 62.0258 18.92C62.8391 19.28 63.4724 19.78 63.9258 20.42C64.3924 21.0467 64.6258 21.8133 64.6258 22.72C64.6258 23.6533 64.3791 24.4733 63.8858 25.18C63.4058 25.8733 62.7191 26.4133 61.8258 26.8C60.9324 27.1867 59.8658 27.38 58.6258 27.38ZM66.1856 31.34V28.62H68.4656C68.8123 28.62 69.1056 28.5733 69.3456 28.48C69.5856 28.4 69.7789 28.26 69.9256 28.06C70.0723 27.86 70.1923 27.5867 70.2856 27.24L72.9856 16.04H76.0256L72.9656 27.88C72.7523 28.7333 72.4523 29.4133 72.0656 29.92C71.6923 30.4267 71.1856 30.7867 70.5456 31C69.9189 31.2267 69.1189 31.34 68.1456 31.34H66.1856ZM69.6256 26.76V24.26H71.9456V26.76H69.6256ZM68.3056 26.76L64.9456 16.04H68.1656L71.3456 26.76H68.3056ZM83.7561 27V23.76H83.2161V20.24C83.2161 19.68 83.0827 19.26 82.8161 18.98C82.5494 18.7 82.1227 18.56 81.5361 18.56C81.2427 18.56 80.8561 18.5667 80.3761 18.58C79.8961 18.5933 79.4027 18.6133 78.8961 18.64C78.3894 18.6667 77.9294 18.6933 77.5161 18.72V16.02C77.8227 15.9933 78.1827 15.9667 78.5961 15.94C79.0094 15.9133 79.4361 15.8933 79.8761 15.88C80.3161 15.8667 80.7294 15.86 81.1161 15.86C82.2361 15.86 83.1761 16.02 83.9361 16.34C84.7094 16.66 85.2961 17.1467 85.6961 17.8C86.0961 18.44 86.2961 19.2667 86.2961 20.28V27H83.7561ZM80.2561 27.28C79.4694 27.28 78.7761 27.14 78.1761 26.86C77.5894 26.58 77.1294 26.18 76.7961 25.66C76.4627 25.1267 76.2961 24.4933 76.2961 23.76C76.2961 22.96 76.5027 22.3067 76.9161 21.8C77.3294 21.28 77.9094 20.9 78.6561 20.66C79.4027 20.4067 80.2627 20.28 81.2361 20.28H83.5761V22.06H81.2161C80.6561 22.06 80.2227 22.2 79.9161 22.48C79.6227 22.7467 79.4761 23.1133 79.4761 23.58C79.4761 24.02 79.6227 24.38 79.9161 24.66C80.2227 24.9267 80.6561 25.06 81.2161 25.06C81.5761 25.06 81.8961 25 82.1761 24.88C82.4694 24.7467 82.7094 24.5267 82.8961 24.22C83.0827 23.9133 83.1894 23.4867 83.2161 22.94L83.9761 23.74C83.9094 24.5 83.7227 25.14 83.4161 25.66C83.1227 26.18 82.7094 26.58 82.1761 26.86C81.6561 27.14 81.0161 27.28 80.2561 27.28ZM88.6111 27V16.04H91.1511V20.76H90.9711C90.9711 19.64 91.1111 18.7067 91.3911 17.96C91.6711 17.2133 92.0911 16.6533 92.6511 16.28C93.2111 15.8933 93.8977 15.7 94.7111 15.7H94.8511C95.6777 15.7 96.3644 15.8933 96.9111 16.28C97.4711 16.6533 97.8911 17.2133 98.1711 17.96C98.4644 18.7067 98.6111 19.64 98.6111 20.76H97.8311C97.8311 19.64 97.9711 18.7067 98.2511 17.96C98.5444 17.2133 98.9711 16.6533 99.5311 16.28C100.091 15.8933 100.778 15.7 101.591 15.7H101.731C102.558 15.7 103.251 15.8933 103.811 16.28C104.384 16.6533 104.818 17.2133 105.111 17.96C105.404 18.7067 105.551 19.64 105.551 20.76V27H102.351V20.58C102.351 19.98 102.191 19.4933 101.871 19.12C101.564 18.7467 101.124 18.56 100.551 18.56C99.9777 18.56 99.5244 18.7533 99.1911 19.14C98.8577 19.5133 98.6911 20.0133 98.6911 20.64V27H95.4711V20.58C95.4711 19.98 95.3111 19.4933 94.9911 19.12C94.6844 18.7467 94.2511 18.56 93.6911 18.56C93.1044 18.56 92.6444 18.7533 92.3111 19.14C91.9777 19.5133 91.8111 20.0133 91.8111 20.64V27H88.6111ZM114.499 27V23.76H113.959V20.24C113.959 19.68 113.826 19.26 113.559 18.98C113.292 18.7 112.866 18.56 112.279 18.56C111.986 18.56 111.599 18.5667 111.119 18.58C110.639 18.5933 110.146 18.6133 109.639 18.64C109.132 18.6667 108.672 18.6933 108.259 18.72V16.02C108.566 15.9933 108.926 15.9667 109.339 15.94C109.752 15.9133 110.179 15.8933 110.619 15.88C111.059 15.8667 111.472 15.86 111.859 15.86C112.979 15.86 113.919 16.02 114.679 16.34C115.452 16.66 116.039 17.1467 116.439 17.8C116.839 18.44 117.039 19.2667 117.039 20.28V27H114.499ZM110.999 27.28C110.212 27.28 109.519 27.14 108.919 26.86C108.332 26.58 107.872 26.18 107.539 25.66C107.206 25.1267 107.039 24.4933 107.039 23.76C107.039 22.96 107.246 22.3067 107.659 21.8C108.072 21.28 108.652 20.9 109.399 20.66C110.146 20.4067 111.006 20.28 111.979 20.28H114.319V22.06H111.959C111.399 22.06 110.966 22.2 110.659 22.48C110.366 22.7467 110.219 23.1133 110.219 23.58C110.219 24.02 110.366 24.38 110.659 24.66C110.966 24.9267 111.399 25.06 111.959 25.06C112.319 25.06 112.639 25 112.919 24.88C113.212 24.7467 113.452 24.5267 113.639 24.22C113.826 23.9133 113.932 23.4867 113.959 22.94L114.719 23.74C114.652 24.5 114.466 25.14 114.159 25.66C113.866 26.18 113.452 26.58 112.919 26.86C112.399 27.14 111.759 27.28 110.999 27.28ZM119.494 27V12.4H122.714V27H119.494ZM118.194 14.76V12.4H122.714V14.76H118.194ZM131.883 27V23.76H131.343V20.24C131.343 19.68 131.209 19.26 130.943 18.98C130.676 18.7 130.249 18.56 129.663 18.56C129.369 18.56 128.983 18.5667 128.503 18.58C128.023 18.5933 127.529 18.6133 127.023 18.64C126.516 18.6667 126.056 18.6933 125.643 18.72V16.02C125.949 15.9933 126.309 15.9667 126.723 15.94C127.136 15.9133 127.563 15.8933 128.003 15.88C128.443 15.8667 128.856 15.86 129.243 15.86C130.363 15.86 131.303 16.02 132.063 16.34C132.836 16.66 133.423 17.1467 133.823 17.8C134.223 18.44 134.423 19.2667 134.423 20.28V27H131.883ZM128.383 27.28C127.596 27.28 126.903 27.14 126.303 26.86C125.716 26.58 125.256 26.18 124.923 25.66C124.589 25.1267 124.423 24.4933 124.423 23.76C124.423 22.96 124.629 22.3067 125.043 21.8C125.456 21.28 126.036 20.9 126.783 20.66C127.529 20.4067 128.389 20.28 129.363 20.28H131.703V22.06H129.343C128.783 22.06 128.349 22.2 128.043 22.48C127.749 22.7467 127.603 23.1133 127.603 23.58C127.603 24.02 127.749 24.38 128.043 24.66C128.349 24.9267 128.783 25.06 129.343 25.06C129.703 25.06 130.023 25 130.303 24.88C130.596 24.7467 130.836 24.5267 131.023 24.22C131.209 23.9133 131.316 23.4867 131.343 22.94L132.103 23.74C132.036 24.5 131.849 25.14 131.543 25.66C131.249 26.18 130.836 26.58 130.303 26.86C129.783 27.14 129.143 27.28 128.383 27.28Z" fill="black"/>
</svg>
