<svg width="136" height="40" viewBox="0 0 136 40" fill="none" xmlns="http://www.w3.org/2000/svg">
<path d="M31.5294 14.2118C31.5294 18.8819 28.7623 22.9082 24.7793 24.7351C26.4612 23.3496 27.5322 21.248 27.5322 18.896C27.5322 14.7642 24.2259 11.4042 20.112 11.3205C20.0574 11.3167 20.0075 11.3167 19.9529 11.3167C19.8983 11.3167 19.8485 11.3167 19.7939 11.3205C18.2673 11.4033 17.0588 12.6663 17.0588 14.2108V28.6814C17.0588 33.4748 13.1699 37.3638 8.37646 37.3638V14.2118C8.37646 7.81928 13.5605 2.63528 19.9529 2.63528C26.3454 2.63528 31.5294 7.81928 31.5294 14.2118Z" fill="white"/>
<path d="M21.9992 16.2582C23.1294 15.128 23.1294 13.2956 21.9992 12.1654C20.8689 11.0351 19.0365 11.0351 17.9063 12.1654C16.7761 13.2956 16.7761 15.128 17.9063 16.2582C19.0365 17.3884 20.8689 17.3884 21.9992 16.2582Z" fill="white"/>
<path d="M58.6259 27.38C57.3059 27.38 56.1926 27.1733 55.2859 26.76C54.3792 26.3333 53.6926 25.76 53.2259 25.04C52.7592 24.3067 52.5259 23.4667 52.5259 22.52H55.7059C55.7059 22.8933 55.8059 23.24 56.0059 23.56C56.2192 23.88 56.5392 24.14 56.9659 24.34C57.3926 24.5267 57.9459 24.62 58.6259 24.62C59.2392 24.62 59.7526 24.54 60.1659 24.38C60.5792 24.22 60.8926 24 61.1059 23.72C61.3192 23.4267 61.4259 23.0933 61.4259 22.72C61.4259 22.2533 61.2259 21.8867 60.8259 21.62C60.4259 21.34 59.7792 21.16 58.8859 21.08L57.7859 20.98C56.3326 20.86 55.1726 20.4067 54.3059 19.62C53.4392 18.8333 53.0059 17.7933 53.0059 16.5C53.0059 15.5667 53.2259 14.76 53.6659 14.08C54.1192 13.4 54.7459 12.88 55.5459 12.52C56.3459 12.1467 57.2926 11.96 58.3859 11.96C59.5326 11.96 60.5126 12.16 61.3259 12.56C62.1526 12.9467 62.7859 13.5 63.2259 14.22C63.6659 14.9267 63.8859 15.76 63.8859 16.72H60.6859C60.6859 16.36 60.5992 16.0333 60.4259 15.74C60.2526 15.4333 59.9926 15.1867 59.6459 15C59.3126 14.8133 58.8926 14.72 58.3859 14.72C57.9059 14.72 57.4992 14.8 57.1659 14.96C56.8459 15.12 56.6059 15.34 56.4459 15.62C56.2859 15.8867 56.2059 16.18 56.2059 16.5C56.2059 16.9133 56.3526 17.2733 56.6459 17.58C56.9392 17.8867 57.4192 18.0667 58.0859 18.12L59.2059 18.22C60.2726 18.3133 61.2126 18.5467 62.0259 18.92C62.8392 19.28 63.4726 19.78 63.9259 20.42C64.3926 21.0467 64.6259 21.8133 64.6259 22.72C64.6259 23.6533 64.3792 24.4733 63.8859 25.18C63.4059 25.8733 62.7192 26.4133 61.8259 26.8C60.9326 27.1867 59.8659 27.38 58.6259 27.38ZM66.1857 31.34V28.62H68.4657C68.8124 28.62 69.1057 28.5733 69.3457 28.48C69.5857 28.4 69.7791 28.26 69.9257 28.06C70.0724 27.86 70.1924 27.5867 70.2857 27.24L72.9857 16.04H76.0257L72.9657 27.88C72.7524 28.7333 72.4524 29.4133 72.0657 29.92C71.6924 30.4267 71.1857 30.7867 70.5457 31C69.9191 31.2267 69.1191 31.34 68.1457 31.34H66.1857ZM69.6257 26.76V24.26H71.9457V26.76H69.6257ZM68.3057 26.76L64.9457 16.04H68.1657L71.3457 26.76H68.3057ZM83.7562 27V23.76H83.2162V20.24C83.2162 19.68 83.0829 19.26 82.8162 18.98C82.5495 18.7 82.1229 18.56 81.5362 18.56C81.2429 18.56 80.8562 18.5667 80.3762 18.58C79.8962 18.5933 79.4029 18.6133 78.8962 18.64C78.3895 18.6667 77.9295 18.6933 77.5162 18.72V16.02C77.8229 15.9933 78.1829 15.9667 78.5962 15.94C79.0095 15.9133 79.4362 15.8933 79.8762 15.88C80.3162 15.8667 80.7295 15.86 81.1162 15.86C82.2362 15.86 83.1762 16.02 83.9362 16.34C84.7095 16.66 85.2962 17.1467 85.6962 17.8C86.0962 18.44 86.2962 19.2667 86.2962 20.28V27H83.7562ZM80.2562 27.28C79.4695 27.28 78.7762 27.14 78.1762 26.86C77.5895 26.58 77.1295 26.18 76.7962 25.66C76.4629 25.1267 76.2962 24.4933 76.2962 23.76C76.2962 22.96 76.5029 22.3067 76.9162 21.8C77.3295 21.28 77.9095 20.9 78.6562 20.66C79.4029 20.4067 80.2629 20.28 81.2362 20.28H83.5762V22.06H81.2162C80.6562 22.06 80.2229 22.2 79.9162 22.48C79.6229 22.7467 79.4762 23.1133 79.4762 23.58C79.4762 24.02 79.6229 24.38 79.9162 24.66C80.2229 24.9267 80.6562 25.06 81.2162 25.06C81.5762 25.06 81.8962 25 82.1762 24.88C82.4695 24.7467 82.7095 24.5267 82.8962 24.22C83.0829 23.9133 83.1895 23.4867 83.2162 22.94L83.9762 23.74C83.9095 24.5 83.7229 25.14 83.4162 25.66C83.1229 26.18 82.7095 26.58 82.1762 26.86C81.6562 27.14 81.0162 27.28 80.2562 27.28ZM88.6112 27V16.04H91.1512V20.76H90.9712C90.9712 19.64 91.1112 18.7067 91.3912 17.96C91.6712 17.2133 92.0912 16.6533 92.6512 16.28C93.2112 15.8933 93.8979 15.7 94.7112 15.7H94.8512C95.6779 15.7 96.3645 15.8933 96.9112 16.28C97.4712 16.6533 97.8912 17.2133 98.1712 17.96C98.4645 18.7067 98.6112 19.64 98.6112 20.76H97.8312C97.8312 19.64 97.9712 18.7067 98.2512 17.96C98.5445 17.2133 98.9712 16.6533 99.5312 16.28C100.091 15.8933 100.778 15.7 101.591 15.7H101.731C102.558 15.7 103.251 15.8933 103.811 16.28C104.385 16.6533 104.818 17.2133 105.111 17.96C105.405 18.7067 105.551 19.64 105.551 20.76V27H102.351V20.58C102.351 19.98 102.191 19.4933 101.871 19.12C101.565 18.7467 101.125 18.56 100.551 18.56C99.9779 18.56 99.5245 18.7533 99.1912 19.14C98.8579 19.5133 98.6912 20.0133 98.6912 20.64V27H95.4712V20.58C95.4712 19.98 95.3112 19.4933 94.9912 19.12C94.6845 18.7467 94.2512 18.56 93.6912 18.56C93.1045 18.56 92.6445 18.7533 92.3112 19.14C91.9779 19.5133 91.8112 20.0133 91.8112 20.64V27H88.6112ZM114.499 27V23.76H113.959V20.24C113.959 19.68 113.826 19.26 113.559 18.98C113.293 18.7 112.866 18.56 112.279 18.56C111.986 18.56 111.599 18.5667 111.119 18.58C110.639 18.5933 110.146 18.6133 109.639 18.64C109.133 18.6667 108.672 18.6933 108.259 18.72V16.02C108.566 15.9933 108.926 15.9667 109.339 15.94C109.752 15.9133 110.179 15.8933 110.619 15.88C111.059 15.8667 111.473 15.86 111.859 15.86C112.979 15.86 113.919 16.02 114.679 16.34C115.453 16.66 116.039 17.1467 116.439 17.8C116.839 18.44 117.039 19.2667 117.039 20.28V27H114.499ZM110.999 27.28C110.213 27.28 109.519 27.14 108.919 26.86C108.332 26.58 107.872 26.18 107.539 25.66C107.206 25.1267 107.039 24.4933 107.039 23.76C107.039 22.96 107.246 22.3067 107.659 21.8C108.072 21.28 108.652 20.9 109.399 20.66C110.146 20.4067 111.006 20.28 111.979 20.28H114.319V22.06H111.959C111.399 22.06 110.966 22.2 110.659 22.48C110.366 22.7467 110.219 23.1133 110.219 23.58C110.219 24.02 110.366 24.38 110.659 24.66C110.966 24.9267 111.399 25.06 111.959 25.06C112.319 25.06 112.639 25 112.919 24.88C113.213 24.7467 113.453 24.5267 113.639 24.22C113.826 23.9133 113.933 23.4867 113.959 22.94L114.719 23.74C114.653 24.5 114.466 25.14 114.159 25.66C113.866 26.18 113.453 26.58 112.919 26.86C112.399 27.14 111.759 27.28 110.999 27.28ZM119.494 27V12.4H122.714V27H119.494ZM118.194 14.76V12.4H122.714V14.76H118.194ZM131.883 27V23.76H131.343V20.24C131.343 19.68 131.209 19.26 130.943 18.98C130.676 18.7 130.249 18.56 129.663 18.56C129.369 18.56 128.983 18.5667 128.503 18.58C128.023 18.5933 127.529 18.6133 127.023 18.64C126.516 18.6667 126.056 18.6933 125.643 18.72V16.02C125.949 15.9933 126.309 15.9667 126.723 15.94C127.136 15.9133 127.563 15.8933 128.003 15.88C128.443 15.8667 128.856 15.86 129.243 15.86C130.363 15.86 131.303 16.02 132.063 16.34C132.836 16.66 133.423 17.1467 133.823 17.8C134.223 18.44 134.423 19.2667 134.423 20.28V27H131.883ZM128.383 27.28C127.596 27.28 126.903 27.14 126.303 26.86C125.716 26.58 125.256 26.18 124.923 25.66C124.589 25.1267 124.423 24.4933 124.423 23.76C124.423 22.96 124.629 22.3067 125.043 21.8C125.456 21.28 126.036 20.9 126.783 20.66C127.529 20.4067 128.389 20.28 129.363 20.28H131.703V22.06H129.343C128.783 22.06 128.349 22.2 128.043 22.48C127.749 22.7467 127.603 23.1133 127.603 23.58C127.603 24.02 127.749 24.38 128.043 24.66C128.349 24.9267 128.783 25.06 129.343 25.06C129.703 25.06 130.023 25 130.303 24.88C130.596 24.7467 130.836 24.5267 131.023 24.22C131.209 23.9133 131.316 23.4867 131.343 22.94L132.103 23.74C132.036 24.5 131.849 25.14 131.543 25.66C131.249 26.18 130.836 26.58 130.303 26.86C129.783 27.14 129.143 27.28 128.383 27.28Z" fill="white"/>
</svg>
